<svg width="300" height="300" xmlns="http://www.w3.org/2000/svg"><g fill="#00adee"><svg overflow="visible" height="300" width="300"><svg viewBox="13.19 9 961.34 961.38" xmlns="http://www.w3.org/2000/svg"><path d="M974.52 119.83C974.52 58.65 924.93 9 863.68 9H341.2c-61.24 0-110.85 49.65-110.85 110.83v522.54c0 61.24 49.61 110.83 110.85 110.83h522.48c61.25 0 110.85-49.58 110.85-110.83V119.83h-.01z" opacity=".6"/><path d="M612.85 459.97c0-49.35-39.96-89.29-89.29-89.29h-421.1c-49.29 0-89.27 39.94-89.27 89.29v421.08c0 49.35 39.99 89.33 89.27 89.33h421.1c49.32 0 89.29-39.98 89.29-89.33V459.97z" opacity=".8"/></svg></svg></g></svg>