<svg width="248" height="60" xmlns="http://www.w3.org/2000/svg"><g fill="#00adee"><svg overflow="visible" height="60" width="60"><svg viewBox="13.19 9 961.34 961.38" xmlns="http://www.w3.org/2000/svg"><path d="M974.52 119.83C974.52 58.65 924.93 9 863.68 9H341.2c-61.24 0-110.85 49.65-110.85 110.83v522.54c0 61.24 49.61 110.83 110.85 110.83h522.48c61.25 0 110.85-49.58 110.85-110.83V119.83h-.01z" opacity=".6"/><path d="M612.85 459.97c0-49.35-39.96-89.29-89.29-89.29h-421.1c-49.29 0-89.27 39.94-89.27 89.29v421.08c0 49.35 39.99 89.33 89.27 89.33h421.1c49.32 0 89.29-39.98 89.29-89.33V459.97z" opacity=".8"/></svg></svg><path d="M71.24 27.215l.77-3.63q2.08-1.02 4.26-1.48 2.18-.47 4.87-.47 2.6 0 4.31.4 1.72.41 2.73 1.19 1.02.77 1.43 1.83.41 1.06.41 2.4 0 .78-.1 1.67-.11.9-.23 1.51l-1.91 8.96h-6.56l-.73-2.61h-.25q-1.3 1.43-3.03 2.18-1.73.76-3.45.76-.97 0-1.91-.29-.94-.28-1.67-.88-.73-.59-1.18-1.5-.45-.92-.45-2.22 0-2.12 1.16-3.36 1.16-1.24 3.06-1.88 1.89-.63 4.27-.79 2.39-.16 4.79-.16.08-.41.2-1.16.13-.76.13-1.33 0-.73-.39-1.36-.39-.63-1.61-.63-1.43 0-2.1.83-.67.84-.87 2.02h-5.95zm9.49 6.68l.65-3.14h-.73q-1.18 0-2.02.31-.83.3-1.34.79-.51.49-.76 1.1-.24.61-.24 1.22 0 .98.51 1.47t1.2.49q.86 0 1.69-.61.84-.61 1.04-1.63zm23.3.85l2.73-12.67h8.31l-3.75 17.52h-6.6l-.73-2.61h-.25q-1.06 1.27-2.87 2.1-1.81.84-3.64.84-2.45 0-3.83-1.25-1.39-1.24-1.39-3.23 0-1.02.35-2.55.35-1.53.63-2.87l1.71-7.95h8.27l-2.04 9.54q-.08.32-.16.77t-.16.88q-.08.42-.15.81-.06.39-.06.63 0 .61.27 1.04.26.43.96.43.73 0 1.38-.49.65-.49 1.02-.94zm12.67-9.94l.57-2.73q1.5-.32 2.65-.73 1.14-.41 2.09-1.02.96-.61 1.84-1.5.87-.9 1.89-2.2h4.2l-1.19 5.45h3.18l-.53 2.73h-3.22l-1.67 7.95q-.2.93-.32 1.67-.12.73-.12 1.14 0 .81.59 1.02.59.2 2.22.2l-.61 2.81q-.29.08-.88.12-.59.04-1.3.1-.72.07-1.47.09-.75.02-1.32.02-1.02 0-2-.15-.98-.14-1.75-.57-.78-.42-1.24-1.24-.47-.81-.47-2.2 0-.49.06-1.22t.26-1.63l1.71-8.11h-3.17zm27.13-3.17q4.84 0 7.04 1.71 2.32 1.79 2.32 5.94 0 2.57-.85 4.63-.86 2.05-2.4 3.4-3.1 2.61-8.97 2.61-5.01 0-7.16-1.92-2.33-1.99-2.33-5.99 0-2.64 1.08-4.8 1.08-2.16 3.12-3.59 2.97-1.99 8.15-1.99zm-2.77 15.52q1.01 0 1.77-1.14.75-1.15 1.2-2.79.45-1.65.67-3.43.23-1.77.23-3.07 0-1.14-.23-1.73-.22-.59-.96-.59-1.1 0-1.89 1.18-.79 1.18-1.28 2.81-.49 1.63-.72 3.34-.22 1.71-.22 2.77 0 2.65 1.43 2.65zm25.01-15.08l-3.43 16.01q-.61 2.85-1.89 4.5-1.28 1.65-2.99 2.51-1.71.85-3.69 1.1-1.98.24-3.97.24l.49-2.81q.61 0 1.12-.12.51-.12.91-.53.41-.41.76-1.2.34-.8.63-2.18l3.71-17.52h8.35zm.97-5.33q0 .94-.38 1.63-.39.69-1.02 1.18t-1.45.73q-.81.25-1.67.25-1.63 0-2.73-.78-1.1-.77-1.1-2.44 0-.9.37-1.61.37-.71 1-1.18t1.46-.71q.84-.25 1.74-.25 1.58 0 2.68.78 1.1.77 1.1 2.4zm11.82 18l2.73-12.67h8.3l-3.74 17.52h-6.6l-.73-2.61h-.25q-1.06 1.27-2.87 2.1-1.81.84-3.65.84-2.44 0-3.83-1.25-1.38-1.24-1.38-3.23 0-1.02.35-2.55.34-1.53.63-2.87l1.71-7.95h8.27l-2.04 9.54q-.08.32-.16.77t-.17.88q-.08.42-.14.81-.06.39-.06.63 0 .61.27 1.04.26.43.95.43.74 0 1.39-.49.65-.49 1.02-.94zm22.03-10.06h.25q.85-.81 1.91-1.51.94-.57 2.24-1.05 1.31-.49 2.93-.49 1.96 0 2.92.89.95.9 1.08 2.2h.24q.94-.85 2.04-1.55.93-.57 2.2-1.05 1.26-.49 2.69-.49 2.11 0 3.44 1.16 1.32 1.16 1.32 2.99 0 .94-.32 2.49-.33 1.54-.74 3.38l-1.71 7.94h-8.02l2.2-10.63q.12-.61.24-1.18t.12-.94q0-.57-.32-.96-.33-.38-.94-.38-.77 0-1.45.55-.67.55-1.03.91l-2.65 12.63h-7.62l2.24-10.63q.08-.53.2-1.08.13-.55.13-1 0-.61-.31-1-.3-.38-.91-.38-.74 0-1.41.53-.67.53-1.04.89l-2.69 12.67h-8.31l3.71-17.52h6.64l.73 2.61zm32.87 12.26l-2.03 9.49h-8.31l5.13-24.36h6.64l.73 2.61h.25q1.46-1.55 3.28-2.22 1.81-.67 3.56-.67 1.43 0 2.38.43.96.42 1.53 1.16.57.73.82 1.75.24 1.02.24 2.16 0 .57-.08 1.71-.08 1.14-.37 2.55-.28 1.4-.81 2.89-.53 1.48-1.41 2.71-.87 1.22-2.2 1.99-1.32.78-3.15.78-1.02 0-1.98-.25-.96-.24-1.73-.65-.77-.41-1.37-.96-.59-.55-.87-1.12h-.25zm2.29-.98q.97 0 1.62-1.03.66-1.04 1.06-2.45.41-1.4.59-2.81.19-1.4.19-2.1 0-.81-.27-1.34-.26-.53-.95-.53-.78 0-1.47.55t-1.02.96l-1.59 7.45q.33.45.78.88.44.42 1.06.42z"/></g></svg>